<svg id="visual" viewBox="0 0 960 540" width="960" height="540" xmlns="http://www.w3.org/2000/svg" xmlns:xlink="http://www.w3.org/1999/xlink" version="1.1"><rect x="0" y="0" width="960" height="540" fill="#27253E"></rect><path d="M0 389L56 343L113 375L169 382L226 347L282 375L339 408L395 387L452 403L508 359L565 384L621 412L678 389L734 412L791 344L847 385L904 359L960 350L960 541L904 541L847 541L791 541L734 541L678 541L621 541L565 541L508 541L452 541L395 541L339 541L282 541L226 541L169 541L113 541L56 541L0 541Z" fill="#8a9d8e"></path><path d="M0 410L56 435L113 409L169 404L226 405L282 429L339 438L395 381L452 403L508 390L565 443L621 393L678 413L734 424L791 384L847 444L904 405L960 440L960 541L904 541L847 541L791 541L734 541L678 541L621 541L565 541L508 541L452 541L395 541L339 541L282 541L226 541L169 541L113 541L56 541L0 541Z" fill="#718976"></path><path d="M0 436L56 425L113 451L169 464L226 431L282 424L339 456L395 448L452 411L508 473L565 472L621 412L678 411L734 445L791 442L847 422L904 423L960 440L960 541L904 541L847 541L791 541L734 541L678 541L621 541L565 541L508 541L452 541L395 541L339 541L282 541L226 541L169 541L113 541L56 541L0 541Z" fill="#58765e"></path><path d="M0 500L56 449L113 489L169 446L226 462L282 482L339 445L395 469L452 496L508 477L565 485L621 481L678 468L734 494L791 450L847 500L904 452L960 483L960 541L904 541L847 541L791 541L734 541L678 541L621 541L565 541L508 541L452 541L395 541L339 541L282 541L226 541L169 541L113 541L56 541L0 541Z" fill="#406348"></path><path d="M0 501L56 520L113 528L169 515L226 497L282 483L339 486L395 494L452 494L508 527L565 521L621 479L678 523L734 521L791 497L847 525L904 489L960 494L960 541L904 541L847 541L791 541L734 541L678 541L621 541L565 541L508 541L452 541L395 541L339 541L282 541L226 541L169 541L113 541L56 541L0 541Z" fill="#285132"></path></svg>